<svg xmlns="http://www.w3.org/2000/svg" version="1.1" xmlns:xlink="http://www.w3.org/1999/xlink" viewBox="717 0 566 145"><svg xml:space="preserve" width="2000" height="145" data-version="2" data-id="lg_sI67YFPKFEtlUgNYJu" viewBox="0 0 566 145" x="0" y="0"><rect width="100%" height="100%" fill="transparent"/><path fill="#fff" d="M194.44 61.93q-.27 1.37-1.59 2.32-1.32.96-3.69.96-2 0-3.14-1.1-1.13-1.09-1.22-2.27.54-3.82.54-11.47 0-4.55-.54-14.01-.64-8.92-.64-15.83 0-3.74.36-7.65 0-1.27 1.5-2.73 1.51-1.45 4.15-1.82 8.64-.91 21.2-.91h2.91q3.28 0 6.42 1.18 3.14 1.19 3.14 4.1 0 1.91-.91 3t-3.37 1.09q-1.18 0-2.73-.18t-2.19-.27q-3.45-.55-5.36-.55-10.56 0-15.93 1.46 0 3 .18 9.74l.09 5.82q4.74 0 8.47-.41 3.73-.41 4.27-.5 4.74-.55 6.28-.55 2.19 0 3.69.96t1.5 2.96q0 4.55-6.37 4.55-1.55 0-2.73.09t-2 .18q-3.28.36-5.19.36-4.19 0-7.1.28 0 3.36.28 7.1 0 1.18.13 3.64.14 2.45.14 4.45 0 1.73-.09 3.19t-.46 2.82m51.05-46.96q-.27 5.83-.27 11.2 0 5.55.73 16.29l.36 6.59q.28 4.96.28 9.06.91-.09 1.95-.27 1.05-.19 1.59-.19 2.01 0 3.19 1 1.18 1.01 1.18 3.1 0 1.36-1.09 2.09-1.09.73-3.78 1.05-2.68.32-7.78.32-5.64 0-8.46-.37-2.82-.36-3.91-1.41-1.09-1.04-1.09-3.14 0-1.54 1-2.09 1-.55 2.82-.55l1.91.09 3 .19-.45-10.74q-.55-8.74-.55-16.02 0-3.91.27-10.74l.19-5q-3.1.18-4.83.18-2 0-2.68-.73-.68-.72-.68-3 0-2.55 3.5-3.28 3.5-.72 10.69-.72 5.55 0 8.33.36 2.77.36 2.77 1.64 0 3.09-1.32 4.05-1.32.95-5.05.95zm57.33-.91q0-2.63 1.23-4.59t3.69-1.96q2.09 0 3.73.82 1.64.82 1.64 2.73 0 3.73-.37 10.47-.36 6.55-.36 9.73 0 5.01.36 13.38.37 8.01.37 11.74 0 3-.09 4.46 0 1.45-1.6 2.86-1.59 1.42-4.87 1.42-1.72 0-2.95-.6-1.23-.59-1.69-1.32-4.27-5.18-12.46-17.65-9.19-13.92-15.02-21.29.73 6.55.73 16.01 0 4.19-.14 10.88-.13 6.69-.41 8.78-.36 2.64-1.59 4.05-1.23 1.41-3.87 1.41-2 0-2.95-1.14-.96-1.14-1.14-3.96-.09-3.73.45-11.19.09-1.18.28-4.1.18-2.91.18-5.18 0-6.28-.64-14.38-.54-8.92-.54-13.2 0-2.18 1.59-3.36 1.59-1.19 3.68-1.19 1.82 0 3.83.91 7.82 9.83 21.2 29.31l8.55 13.1q.09-1.46.09-4.09 0-4.65-.18-10.01-.18-5.37-.27-7.28-.46-8.83-.46-15.57m64.89 49.78q-1.19-1.55-2.01-3.41-.81-1.87-1.72-4.51-.19-.45-1.05-2.73-.87-2.27-1.96-3.91-5.73.82-9.37.82-2 0-4.41-.14-2.42-.13-3.6-.13-4.55-.37-7.28-.37-1.09 1.46-1.86 3.1-.78 1.64-1.96 4.91-1.64 4.73-2.82 6.74-.82 1.36-3.19 1.36-2 0-3.68-.86-1.69-.87-1.69-2.42.73-3.45 2.32-7.32 1.6-3.87 4.6-10.33l3.64-8.92q3-7.64 5.51-13.1 2.5-5.46 6.59-12.92.55-1.1 1.82-1.87 1.28-.77 2.82-.77 1.73 0 2.51.22.77.23 1.23.73.45.5 1.36 2.05 3.09 4.82 5.32 9.92 2.23 5.1 5.69 14.1l1.91 4.83q2.55 6.55 4.42 10.96 1.86 4.42 4.14 8.06 1.45 2.36 1.45 3.27 0 2.19-1.32 3.32-1.32 1.14-3.41 1.14-2.64 0-4-1.82m-9.38-22.02q-1.45-3.09-4.18-10.74-2.82-8.19-5.64-13.01-1.73 4.37-5.1 11.28-2.28 4.28-5.19 12.38 5.83.73 12.56.73 4.82 0 7.55-.64m64.16-27.76q0-2.63 1.23-4.59t3.68-1.96q2.1 0 3.73.82 1.64.82 1.64 2.73 0 3.73-.36 10.47-.37 6.55-.37 9.73 0 5.01.37 13.38.36 8.01.36 11.74 0 3-.09 4.46 0 1.45-1.59 2.86-1.59 1.42-4.87 1.42-1.73 0-2.96-.6-1.23-.59-1.68-1.32-4.28-5.18-12.47-17.65-9.19-13.92-15.01-21.29.72 6.55.72 16.01 0 4.19-.13 10.88-.14 6.69-.41 8.78-.37 2.64-1.59 4.05-1.23 1.41-3.87 1.41-2 0-2.96-1.14-.95-1.14-1.14-3.96-.09-3.73.46-11.19.09-1.18.27-4.1.18-2.91.18-5.18 0-6.28-.63-14.38-.55-8.92-.55-13.2 0-2.18 1.59-3.36 1.6-1.19 3.69-1.19 1.82 0 3.82.91 7.83 9.83 21.2 29.31l8.56 13.1q.09-1.46.09-4.09 0-4.65-.18-10.01-.19-5.37-.28-7.28-.45-8.83-.45-15.57m67.79.64q1.37 1.64 1.91 2.64.55 1 .55 1.91 0 1.09-1.41 2.55-1.41 1.46-2.78 1.46-1.82 0-2.91-.55t-1.82-1.73q-1.45-2.18-3.55-3.78-2.09-1.59-6.55-1.59-3.82 0-8.69 1.73-4.87 1.73-6.96 4.28-1.82 2.27-3.14 6.91-1.32 4.64-1.32 9.01 0 5.28 2.32 9.69 2.32 4.42 6.73 7.06 4.42 2.64 10.61 2.64 3.36 0 6.96-1.32 3.59-1.32 6.23-4.33h-.09q1.64-1.73 4.1-1.73 1.45 0 2.77 1.28 1.32 1.27 1.32 2.55 0 1.36-.41 2.41-.41 1.04-1.5 2.32-3.73 4.18-8.83 5.73-5.09 1.55-12.19 1.55-6.28 0-12.7-3-6.41-3.01-9.87-7.28-1.82-2.64-3.5-7.6-1.69-4.96-1.69-8.06 0-7.91 2.41-15.06 2.42-7.14 7.24-11.42 3.18-2.91 9.19-4.37 6.01-1.45 11.01-1.45 6.1 0 9.6 1.68 3.51 1.69 6.96 5.87m51.42 38.13q1.73 0 2.59 1.32.87 1.32.87 2.87 0 1.91-.6 2.68-.59.77-2.22 1.59-3.83 1.82-9.47 2.92-5.64 1.09-12.1 1.09-8.1 0-11.88-2.73-3.77-2.73-4.64-6.6-.86-3.87-.86-10.15 0-6.73.54-13.24.55-6.5 1.91-16.6.64-4.37 3.46-6.33t6.19-1.96q2.82 0 9.19-.18l7.92-.09q4.91 0 7.1.27 2.73.55 4.05 1.23 1.32.69 1.32 2.32 0 1.82-1.23 3.55-1.23 1.73-3.69 1.73-2.82 0-8.1-.36-5.28-.37-7.91-.37-2.28 0-4.46.28-2.55.18-3.64.63-1.1.46-1.28 1.55-1.27 9.37-1.27 13.83 2.09.28 4.09.28 2.55 0 5.46-.28 2.92-.27 3.73-.36 4.83-.46 8.29-.46 2 0 3.04.73 1.05.73 1.05 2 0 2.01-1.05 3.1-1.04 1.09-3.68 1.64-3.19.63-7.87 1-4.69.36-9.15.36-1.55 0-4.28-.18-.27 5.55-.27 10.28 0 6.46 8.56 6.46 4.55 0 7.55-.63 3-.64 6.91-1.82 3.64-1.37 5.83-1.37M178.61 88.25q0-3.92 5.73-3.92 2.46 0 9.37.19 7.65.36 11.56.36 3.19 0 7.74-.36 3.09-.19 3.91-.19 5 .19 8.46 1.82 1 .46 1.64 1.1.64.63.64 2.09 0 2-1.28 3.41-1.27 1.41-3.09 1.41-2 0-5.82-.54-3.37-.64-5.92-.64-2.46 0-3.73.09-.27 3-.27 14.38 0 13.56.82 27.48l.18 2.64q0 3.73-4.28 3.73-3.37 0-4.55-1.59-1.18-1.59-1.18-4.87 0-6.46-.37-16.11-.36-8.01-.36-11.37 0-2.28.55-13.93l-10.65.1q-5.1 0-7.1-.96t-2-4.32m86.08 28.94q3.19 5.36 6.42 9.5 3.23 4.15 8.51 10.15.64.64.64 1.46 0 1.27-1.42 2.18-1.41.91-3.41.91-2.82 0-6.09-2.36-2.92-2.1-5.19-5.56-2.28-3.45-5.28-9-2.37-4.28-2.82-5.01-3.55 1.46-11.1 1.82 0 3.09.54 8.37.55 5.46.55 7.92 0 1.64-1.59 2.73-1.6 1.09-3.6 1.09-2.36 0-3.64-1.91-1.27-2.55-1.64-6.1-.36-3.55-.36-8.46 0-5.19.64-11.74.54-7.28.54-10.74 0-2.82-.54-7.55-.09-.82-.28-2.82-.18-2-.18-3.64 0-1.27.96-2.23.95-.96 2.05-1.32 7.37-1.18 14.37-1.18 11.92 0 19.75 4.46t7.83 13.56q0 2.82-1.23 5.41-1.23 2.59-3.32 4.32-5.55 4.28-11.11 5.74m6.1-15.75q0-4.37-4.64-7.14-4.64-2.78-13.19-2.78-3.83 0-7.56.91l.09 4.64q0 4.01-.27 7.83-.27 3.82-.27 8.19 1.54-.36 3.27-.5t2.28-.23q4-.36 6.19-.91 4.09-1.27 6.78-2.32 2.68-1.04 5-3t2.32-4.69m60.88 38.5q-1.18-1.55-2-3.42-.82-1.86-1.73-4.5-.18-.46-1.05-2.73-.86-2.28-1.95-3.91-5.74.81-9.38.81-2 0-4.41-.13-2.41-.14-3.59-.14-4.55-.36-7.28-.36-1.1 1.45-1.87 3.09t-1.96 4.92q-1.63 4.73-2.82 6.73-.82 1.36-3.18 1.36-2 0-3.69-.86-1.68-.86-1.68-2.41.73-3.46 2.32-7.33 1.59-3.86 4.59-10.33l3.64-8.91q3.01-7.65 5.51-13.11 2.5-5.46 6.6-12.92.54-1.09 1.82-1.87 1.27-.77 2.82-.77 1.73 0 2.5.23t1.23.73q.45.5 1.36 2.04 3.1 4.83 5.33 9.92 2.23 5.1 5.69 14.11l1.91 4.82q2.54 6.55 4.41 10.97 1.87 4.41 4.14 8.05 1.46 2.37 1.46 3.28 0 2.18-1.32 3.32-1.32 1.14-3.42 1.14-2.63 0-4-1.82m-9.37-22.03q-1.46-3.09-4.19-10.73-2.82-8.19-5.64-13.02-1.73 4.37-5.1 11.29-2.27 4.27-5.18 12.37 5.82.73 12.55.73 4.83 0 7.56-.64m70.52-27.11q1.37 1.63 1.91 2.63.55 1.01.55 1.92 0 1.09-1.41 2.54-1.41 1.46-2.78 1.46-1.82 0-2.91-.55-1.09-.54-1.82-1.73-1.45-2.18-3.55-3.77-2.09-1.59-6.55-1.59-3.82 0-8.69 1.72-4.87 1.73-6.96 4.28-1.82 2.28-3.14 6.92-1.32 4.64-1.32 9.01 0 5.27 2.32 9.69 2.32 4.41 6.73 7.05 4.42 2.64 10.61 2.64 3.36 0 6.96-1.32 3.59-1.32 6.23-4.32h-.09q1.64-1.73 4.09-1.73 1.46 0 2.78 1.27 1.32 1.28 1.32 2.55 0 1.37-.41 2.41-.41 1.05-1.5 2.32-3.73 4.19-8.83 5.74-5.09 1.54-12.19 1.54-6.28 0-12.7-3-6.41-3-9.87-7.28-1.82-2.64-3.5-7.6-1.69-4.96-1.69-8.05 0-7.92 2.41-15.06 2.42-7.15 7.24-11.42 3.18-2.92 9.19-4.37 6.01-1.46 11.01-1.46 6.1 0 9.6 1.69 3.5 1.68 6.96 5.87m63.16 43.58q.91.46 1.41 1.19.5.73.5 2.09 0 1.73-1.32 2.78-1.32 1.04-3.05 1.04-2 0-4.55-1-5.1-2.27-9.97-8.42-4.86-6.14-11.69-17.7-5.19 4.01-10.55 7.47 0 1.91.13 4.41.14 2.5.14 3.69.18 5.27.18 7 0 1.55-1 2.96t-3 1.41q-2.92 0-4.19-.96-1.27-.95-1.55-2.77-.72-4.55-.72-8.74 0-4.73.72-13.65.73-8.55.73-12.83 0-1.64-.18-4.73-.09-2.46-.55-4.55-.36-2.91-.36-4.09 0-2.92 1.27-4.19 1.28-1.27 3.92-1.27 2 0 3.32 1.13 1.32 1.14 1.5 3.05.45 7.74.45 11.92-.09 2.28-.31 6.51-.23 4.23-.41 5.32 3.09-1.73 12.14-9.96 9.06-8.24 12.88-12.97l1.18-1.36q1.46-1.92 2.46-2.64 1-.73 2.73-.73t3.14 1.14q1.41 1.13 1.41 2.68 0 3-3.09 6.1-7.56 7.82-15.11 14.56 10.65 19.93 21.39 26.11m46.41-5.46q1.73 0 2.59 1.32.86 1.32.86 2.87 0 1.91-.59 2.68-.59.78-2.23 1.6-3.82 1.82-9.46 2.91-5.64 1.09-12.1 1.09-8.1 0-11.88-2.73-3.78-2.73-4.64-6.6-.86-3.86-.86-10.14 0-6.74.54-13.24.55-6.51 1.91-16.61.64-4.37 3.46-6.33 2.82-1.95 6.19-1.95 2.82 0 9.19-.18l7.92-.09q4.91 0 7.09.27 2.73.54 4.05 1.23 1.32.68 1.32 2.32 0 1.82-1.23 3.55-1.22 1.73-3.68 1.73-2.82 0-8.1-.37-5.28-.36-7.92-.36-2.27 0-4.46.27-2.54.18-3.64.64-1.09.45-1.27 1.54-1.27 9.38-1.27 13.84 2.09.27 4.09.27 2.55 0 5.46-.27 2.91-.28 3.73-.37 4.83-.45 8.28-.45 2.01 0 3.05.73 1.05.72 1.05 2 0 2-1.05 3.09-1.04 1.09-3.68 1.64-3.19.64-7.88 1-4.68.36-9.14.36-1.55 0-4.28-.18-.27 5.55-.27 10.29 0 6.46 8.55 6.46 4.55 0 7.56-.64 3-.64 6.91-1.82 3.64-1.37 5.83-1.37m42.4-11.73q3.19 5.36 6.42 9.5 3.23 4.15 8.51 10.15.63.64.63 1.46 0 1.27-1.41 2.18-1.41.91-3.41.91-2.82 0-6.1-2.36-2.91-2.1-5.18-5.56-2.28-3.45-5.28-9-2.37-4.28-2.82-5.01-3.55 1.46-11.1 1.82 0 3.09.54 8.37.55 5.46.55 7.92 0 1.64-1.6 2.73-1.59 1.09-3.59 1.09-2.37 0-3.64-1.91-1.27-2.55-1.64-6.1-.36-3.55-.36-8.46 0-5.19.64-11.74.54-7.28.54-10.74 0-2.82-.54-7.55-.1-.82-.28-2.82-.18-2-.18-3.64 0-1.27.96-2.23.95-.96 2.04-1.32 7.37-1.18 14.38-1.18 11.92 0 19.75 4.46 7.82 4.46 7.82 13.56 0 2.82-1.22 5.41-1.23 2.59-3.33 4.32-5.55 4.28-11.1 5.74m6.1-15.75q0-4.37-4.64-7.14-4.64-2.78-13.2-2.78-3.82 0-7.55.91l.09 4.64q0 4.01-.27 7.83-.27 3.82-.27 8.19 1.54-.36 3.27-.5t2.28-.23q4-.36 6.18-.91 4.1-1.27 6.78-2.32 2.69-1.04 5.01-3t2.32-4.69M119.048 36.671h27.072v105.406h-27.072zM81.238 1.517h27.03v140.56h-27.03zm-37.853 70.28h27.072v70.28H43.385zM5.56 106.951h27.058v35.126H5.56z"/></svg></svg>